<svg width="508" height="508" viewBox="0 0 508 508" fill="none" xmlns="http://www.w3.org/2000/svg">
<rect width="508" height="508" fill="black"/>
<path fill-rule="evenodd" clip-rule="evenodd" d="M123.574 314.947C149.83 314.715 170.084 310.568 186.865 302.947C203.655 295.323 214.67 285.171 222.464 277.888C230.533 270.348 234.274 266.89 239.629 264.179L240.078 314.947C266.334 314.715 286.588 310.568 303.37 302.947C320.159 295.323 331.174 285.171 338.968 277.888C347.099 270.29 350.835 266.837 356.256 264.117C361.088 261.693 369.425 258.925 385.971 258.925V194C361.801 194 342.995 198.133 327.142 206.086C313.002 213.18 302.959 222.628 296.192 228.994L296.191 228.996C295.653 229.501 295.137 229.987 294.64 230.451C287.555 237.072 283.036 240.876 276.525 243.832C274.591 244.711 272.278 245.598 269.467 246.416V194C245.297 194 226.491 198.133 210.638 206.086C196.498 213.18 186.455 222.628 179.688 228.994L179.688 228.994L179.687 228.996C179.149 229.501 178.632 229.987 178.136 230.451C171.051 237.072 166.532 240.876 160.021 243.832C153.502 246.792 142.69 249.851 123 250.025L123.574 314.947Z" fill="white"/>
</svg>
